<?xml version="1.0" encoding="utf-8"?>
<!-- Generator: Adobe Illustrator 16.0.0, SVG Export Plug-In . SVG Version: 6.00 Build 0)  -->
<!DOCTYPE svg PUBLIC "-//W3C//DTD SVG 1.1//EN" "http://www.w3.org/Graphics/SVG/1.1/DTD/svg11.dtd">
<svg version="1.1" id="Layer_1" xmlns="http://www.w3.org/2000/svg" xmlns:xlink="http://www.w3.org/1999/xlink" x="0px" y="0px"
	 width="200px" height="200px" viewBox="0 0 200 200" enable-background="new 0 0 200 200" xml:space="preserve">
<path d="M42.052,43.88H55.58v38.613c0,3.582-0.831,6.777-2.493,9.586c-1.662,2.808-3.981,4.985-6.957,6.531
	c-2.976,1.546-6.294,2.32-9.953,2.32c-6.133,0-10.9-1.546-14.301-4.638s-5.103-7.473-5.103-13.142h13.606
	c0,2.577,0.445,4.445,1.333,5.604c0.889,1.16,2.377,1.74,4.464,1.74c1.88,0,3.33-0.702,4.348-2.106
	c1.018-1.404,1.527-3.369,1.527-5.895V43.88z"/>
<path d="M52.491,69.272c0-4.175,0.812-7.891,2.435-11.151c1.624-3.26,3.955-5.765,6.996-7.519c3.04-1.751,6.609-2.627,10.706-2.627
	c6.262,0,11.196,1.938,14.804,5.817c3.608,3.878,5.412,9.155,5.412,15.827v0.464c0,6.519-1.811,11.692-5.431,15.518
	c-3.621,3.827-8.523,5.74-14.707,5.74c-5.953,0-10.733-1.784-14.34-5.354c-3.608-3.569-5.553-8.406-5.836-14.513L52.491,69.272z
	 M65.517,70.084c0,3.865,0.605,6.7,1.816,8.503c1.211,1.804,3.001,2.706,5.373,2.706c4.638,0,7.008-3.568,7.111-10.706v-1.314
	c0-7.499-2.396-11.248-7.189-11.248c-4.354,0-6.712,3.234-7.073,9.702L65.517,70.084z"/>
<path d="M104.636,40.56l0.425,4.909c2.886-3.788,6.866-5.682,11.944-5.682c4.354,0,7.607,1.301,9.76,3.904
	c2.149,2.603,3.266,6.52,3.343,11.75v44.092h-13.063V55.981c0-2.112-0.426-3.665-1.276-4.658c-0.851-0.991-2.396-1.487-4.638-1.487
	c-2.552,0-4.445,1.004-5.683,3.015v29.531H92.42V40.56H104.636z"/>
<path d="M154.346,94.664c-0.464-0.851-0.876-2.101-1.237-3.75c-2.396,3.015-5.746,4.522-10.049,4.522
	c-3.942,0-7.292-1.191-10.05-3.575c-2.757-2.383-4.136-5.378-4.136-8.986c0-4.535,1.675-7.962,5.024-10.281
	c3.349-2.32,8.219-3.479,14.611-3.479h4.02v-2.214c0-3.858-1.662-5.787-4.986-5.787c-3.092,0-4.638,1.528-4.638,4.583H129.88
	c0-4.041,1.72-7.323,5.159-9.844c3.44-2.522,7.827-3.784,13.161-3.784c5.333,0,9.547,1.302,12.639,3.904
	c3.092,2.602,4.678,6.171,4.755,10.706v18.514c0.051,3.839,0.643,6.777,1.777,8.813v0.657H154.346z M146.19,86.16
	c1.623,0,2.97-0.347,4.039-1.043c1.067-0.696,1.836-1.481,2.3-2.358v-6.687h-3.788c-4.536,0-6.803,2.036-6.803,6.107
	c0,1.185,0.399,2.145,1.198,2.879C143.934,85.793,144.953,86.16,146.19,86.16z"/>
<path d="M185.399,114.714c0-1.107-0.579-1.996-1.739-2.667c-1.16-0.67-3.362-1.366-6.609-2.088c-3.247-0.72-5.927-1.666-8.04-2.84
	c-2.112-1.173-3.724-2.595-4.83-4.271c-1.108-1.675-1.662-3.595-1.662-5.759c0-3.839,1.584-7.002,4.753-9.489
	c3.17-2.487,7.318-3.73,12.446-3.73c5.515,0,9.946,1.25,13.297,3.75c3.35,2.499,5.024,5.785,5.024,9.855h-13.064
	c0-3.349-1.765-5.024-5.295-5.024c-1.366,0-2.513,0.38-3.441,1.14c-0.927,0.76-1.391,1.707-1.391,2.84
	c0,1.16,0.567,2.101,1.701,2.822c1.134,0.722,2.943,1.314,5.431,1.778c2.486,0.463,4.67,1.019,6.551,1.661
	c6.287,2.165,9.432,6.044,9.432,11.635c0,3.813-1.694,6.919-5.083,9.315c-3.389,2.396-7.774,3.596-13.161,3.596
	c-3.581,0-6.777-0.645-9.585-1.934c-2.81-1.289-4.999-3.04-6.571-5.257s-2.357-4.547-2.357-6.996h12.175
	c0.053,1.933,0.696,3.343,1.933,4.232c1.237,0.889,2.822,1.334,4.754,1.334c1.778,0,3.111-0.361,4.001-1.083
	C184.955,116.815,185.399,115.874,185.399,114.714z"/>
<path d="M50.298,152.061c-2.087,2.318-5.141,4.187-9.16,5.604c-4.02,1.418-8.426,2.126-13.219,2.126
	c-7.37,0-13.258-2.255-17.664-6.765c-4.407-4.509-6.764-10.783-7.074-18.822l-0.039-4.87c0-5.541,0.979-10.376,2.938-14.513
	c1.958-4.135,4.76-7.317,8.407-9.547c3.646-2.229,7.866-3.345,12.658-3.345c7.009,0,12.452,1.605,16.331,4.813
	c3.878,3.209,6.139,7.995,6.783,14.359H37.195c-0.463-3.144-1.469-5.386-3.015-6.727c-1.546-1.337-3.736-2.011-6.57-2.011
	c-3.401,0-6.03,1.445-7.885,4.331s-2.796,7.007-2.822,12.367v3.401c0,5.616,0.96,9.837,2.88,12.658
	c1.918,2.821,4.941,4.232,9.064,4.232c3.53,0,6.158-0.786,7.885-2.357v-8.736h-9.431v-9.314h22.997V152.061z"/>
<path d="M47.443,138.368c0-4.177,0.812-7.895,2.435-11.153c1.623-3.257,3.955-5.764,6.996-7.517
	c3.04-1.752,6.609-2.629,10.707-2.629c6.262,0,11.195,1.941,14.804,5.819c3.606,3.875,5.411,9.152,5.411,15.826v0.464
	c0,6.519-1.811,11.69-5.431,15.518c-3.62,3.826-8.522,5.741-14.707,5.741c-5.952,0-10.732-1.786-14.34-5.355
	c-3.607-3.567-5.552-8.405-5.836-14.512L47.443,138.368z M60.469,139.179c0,3.865,0.605,6.699,1.816,8.503
	c1.211,1.805,3.001,2.705,5.373,2.705c4.638,0,7.009-3.568,7.112-10.705v-1.313c0-7.499-2.397-11.248-7.189-11.248
	c-4.354,0-6.713,3.233-7.074,9.7L60.469,139.179z"/>
<path d="M94.368,107.364l0.425,4.908c2.96-3.788,6.942-5.682,11.944-5.682c5.28,0,8.852,2.1,10.707,6.3
	c2.835-4.2,6.932-6.3,12.291-6.3c8.478,0,12.833,5.128,13.063,15.383v27.211h-13.063v-26.399c0-2.138-0.363-3.697-1.082-4.677
	c-0.722-0.979-2.036-1.469-3.942-1.469c-2.576,0-4.5,1.146-5.76,3.439l0.039,0.541v41.757h-13.064v-39.515
	c0-2.189-0.348-3.774-1.043-4.754c-0.696-0.979-2.026-1.469-3.981-1.469c-2.5,0-4.407,1.146-5.721,3.439v29.105H82.153v-41.82
	H94.368z"/>
<path d="M159.284,161.084c-6.416,0-11.61-1.915-15.576-5.742c-3.969-3.825-5.952-8.804-5.952-14.936v-1.083
	c0-4.278,0.791-8.053,2.375-11.325c1.585-3.272,3.898-5.806,6.939-7.597c3.038-1.79,6.648-2.685,10.822-2.685
	c5.875,0,10.514,1.822,13.914,5.469c3.402,3.646,5.104,8.729,5.104,15.248v5.063h-25.897c0.464,2.345,1.481,4.188,3.054,5.528
	c1.572,1.339,3.607,2.01,6.106,2.01c4.124,0,7.345-1.444,9.663-4.329l5.953,7.033c-1.625,2.243-3.925,4.025-6.901,5.353
	C165.912,160.419,162.711,161.084,159.284,161.084z M164.154,135.342v-1.005c0.052-2.088-0.477-3.705-1.585-4.853
	c-1.107-1.146-2.693-1.719-4.754-1.719c-3.813,0-6.084,2.526-6.803,7.576"/>
</svg>
